<?xml version="1.0" encoding="UTF-8" standalone="no"?>
<svg width="237px" height="100px" viewBox="0 0 237 100" version="1.1" xmlns="http://www.w3.org/2000/svg" xmlns:xlink="http://www.w3.org/1999/xlink">
    <!-- Generator: Sketch 49 (51002) - http://www.bohemiancoding.com/sketch -->
    <title>MobileFactory_Logo</title>
    <desc>Created with Sketch.</desc>
    <defs></defs>
    <g id="Page-1" stroke="none" stroke-width="1" fill="none" fill-rule="evenodd">
        <g id="MobileFactory_Logo" transform="translate(-1.000000, 0.000000)" fill="#FFFFFF">
            <path d="M0.997,99.128 L36.891,15.958 C36.891,15.958 39.313,12.058 42.845,12.799 C45.136,13.279 46.17,16.659 46.17,16.659 L66.481,64.808 L51.773,99.128 L0.997,99.128" id="Fill-3"></path>
            <path d="M43.719,0.727 L92.57,0.727 C92.57,0.727 98.348,0.201 101.499,6.504 C104.65,12.807 137.569,90.198 137.569,90.198 C137.569,90.198 141.945,99.128 147.198,99.128 C152.45,99.128 95.458,99.128 95.458,99.128 C95.458,99.128 90.644,98.427 86.967,89.846 C84.084,83.122 62.231,30.982 52.124,8.782 C49.358,2.704 43.719,0.727 43.719,0.727" id="Fill-4"></path>
            <path d="M123.912,35.043 L132.14,16.484 C132.14,16.484 134.066,13.13 137.216,12.706 C140.369,12.283 141.769,16.834 141.769,16.834 L161.731,64.634 L153.5,84.069 C153.5,84.069 152.624,87.046 149.299,87.221 C145.972,87.397 144.747,84.594 144.747,84.594 L123.912,35.043" id="Fill-5"></path>
            <path d="M237.376,99.133 L186.417,99.133 C186.417,99.133 157.659,30.987 147.546,8.787 C144.789,2.707 139.143,0.719 139.143,0.719 L187.986,0.719 C187.986,0.719 193.771,0.201 196.922,6.504 C200.075,12.807 237.376,99.133 237.376,99.133" id="Fill-6"></path>
            <path d="M156.901,0.719 L139.143,0.719 C139.143,0.719 144.789,2.707 147.546,8.787 C150.261,14.747 154.32,24.019 158.807,34.392 L212.854,61.659 L156.901,0.719" id="Fill-7"></path>
            <path d="M232.995,89.004 C229.702,81.394 224.909,70.33 219.876,58.744 L212.854,61.659 L232.995,89.004" id="Fill-8"></path>
            <path d="M214.271,45.844 C205.959,26.751 198.28,9.217 196.922,6.504 C193.771,0.201 187.986,0.719 187.986,0.719 L156.901,0.719 L212.854,61.659 L214.271,45.844" id="Fill-9"></path>
            <path d="M219.876,58.744 C218.019,54.463 216.129,50.118 214.271,45.844 L212.854,61.659 L219.876,58.744" id="Fill-10"></path>
            <path d="M174.458,70.93 C176.273,75.19 177.972,79.195 179.49,82.771 L212.854,61.659 L174.458,70.93" id="Fill-11"></path>
            <path d="M232.995,89.004 L212.854,61.659 L188.656,99.133 L237.376,99.133 C237.376,99.133 235.683,95.217 232.995,89.004" id="Fill-12"></path>
            <path d="M179.49,82.771 C183.631,92.531 186.417,99.133 186.417,99.133 L188.656,99.133 L212.854,61.659 L179.49,82.771" id="Fill-13"></path>
            <path d="M158.807,34.392 C163.922,46.229 169.591,59.499 174.458,70.93 L212.854,61.659 L158.807,34.392" id="Fill-14"></path>
            <path d="M141.769,16.834 C141.769,16.834 140.369,12.283 137.216,12.707 C134.066,13.131 132.14,16.485 132.14,16.485 L130.439,20.322 L146.688,28.614 L141.769,16.834" id="Fill-15"></path>
            <path d="M142.408,79.033 L144.747,84.594 C144.747,84.594 145.972,87.397 149.299,87.221 C152.624,87.046 153.5,84.069 153.5,84.069 L157.066,75.65 L142.408,79.033" id="Fill-16"></path>
            <polyline id="Fill-17" points="161.731 64.634 146.688 28.614 130.439 20.322 123.912 35.043 142.408 79.033 157.066 75.65 161.731 64.634"></polyline>
            <path d="M64.205,0.727 L43.719,0.727 C43.719,0.727 47.571,2.086 50.469,5.989 L64.205,9.832 L64.205,0.727" id="Fill-18"></path>
            <path d="M104.775,13.779 C103.144,10.064 101.978,7.461 101.499,6.504 C100.268,4.042 98.637,2.629 97.105,1.814 L64.205,9.832 L104.775,13.779" id="Fill-19"></path>
            <path d="M124.467,68.628 L131.161,75.155 C123.475,57.136 110.87,27.653 104.775,13.779 L64.205,9.832 L124.467,68.628" id="Fill-20"></path>
            <path d="M97.105,1.814 C94.716,0.54 92.57,0.727 92.57,0.727 L64.205,0.727 L64.205,9.832 L97.105,1.814" id="Fill-21"></path>
            <path d="M50.469,5.989 C51.076,6.806 51.646,7.728 52.124,8.782 C54.163,13.26 56.682,18.965 59.425,25.261 L64.205,9.832 L50.469,5.989" id="Fill-22"></path>
            <path d="M137.569,90.198 C137.569,90.198 132.454,78.193 131.161,75.155 L124.467,68.628 L98.193,99.128 C104.838,99.128 145.891,99.128 147.198,99.128 C141.945,99.128 137.569,90.198 137.569,90.198" id="Fill-23"></path>
            <path d="M64.205,9.832 L59.425,25.261 C70.28,50.18 84.665,84.479 86.967,89.846 C90.644,98.427 95.458,99.128 95.458,99.128 C95.458,99.128 96.468,99.128 98.193,99.128 L124.467,68.628 L64.205,9.832" id="Fill-24"></path>
            <polyline id="Fill-25" points="0.997 99.128 27.321 99.128 9.133 80.278 0.997 99.128"></polyline>
            <path d="M46.17,16.66 C46.17,16.66 45.136,13.28 42.845,12.8 C39.313,12.059 36.891,15.958 36.891,15.958 L25.174,43.11 L48.959,23.268 L46.17,16.66" id="Fill-26"></path>
            <polyline id="Fill-27" points="48.959 23.268 25.174 43.11 9.133 80.278 27.321 99.128 51.773 99.128 56.413 88.301 58.774 46.54 48.959 23.268"></polyline>
            <polyline id="Fill-28" points="58.774 46.54 56.413 88.301 66.481 64.808 58.774 46.54"></polyline>
        </g>
    </g>
</svg>