<?xml version="1.0" encoding="utf-8"?>
<!-- Generator: Adobe Illustrator 16.0.0, SVG Export Plug-In . SVG Version: 6.00 Build 0)  -->
<!DOCTYPE svg PUBLIC "-//W3C//DTD SVG 1.1//EN" "http://www.w3.org/Graphics/SVG/1.1/DTD/svg11.dtd">
<svg version="1.1" id="Layer_1" xmlns="http://www.w3.org/2000/svg" xmlns:xlink="http://www.w3.org/1999/xlink" x="0px" y="0px"
	 width="2048px" height="2048px" viewBox="0 0 2048 2048" enable-background="new 0 0 2048 2048" xml:space="preserve">
<g>
	<g>
		<g>
			<path fill="#FFFFFF" d="M699.027,869.257c-1.116,1.227-5.206,5.355-2.279,13.06c2.837,7.437,11.397,7.169,11.397,7.169h79.494
				l0.217,0.015c1.763,0.136,4.448-2.06,5.694-3.053l2.154-1.678L985.486,691.1c0,0,13.776-15.643,34.629-16.012
				c23.455-0.42,40.198,17.496,40.198,17.496l190.568,193.832h-0.063c1.086,1.654,2.895,2.854,4.963,3.062l0.682,0.008h80.547
				c0,0,7.689-0.729,10.193-7.908c2.538-7.248-2.333-12.169-2.333-12.169l-285.443-281.991c0,0-14.507-16.167-36.933-15.963
				c-22.122,0.179-33.272,11.156-35.404,13.267L699.027,869.257z"/>
			<path fill="#FFFFFF" d="M1934.805,1115.435c0-2.964-1.159-5.635-3.02-7.655l0.063-0.027l-113.747-131.884
				c0,0-9.02-10.225-18.559-13.988c-12.24-4.822-20.236-4.479-21.641-4.364l-523.495-0.186c0,0-2.649-0.056-4.747-0.845
				c-2.098-0.793-3.673-2.456-3.673-2.456l-189.525-194.579l-0.142,0.103c-2.799-2.387-13.995-11.231-31.692-11.717v-0.041
				c-0.211,0-0.41,0.018-0.616,0.018c-0.212,0-0.407-0.018-0.618-0.018v0.041c-17.697,0.485-28.907,9.33-31.691,11.717l-0.153-0.103
				L802.028,954.03c0,0-1.593,1.663-3.685,2.456c-2.091,0.789-4.736,0.845-4.736,0.845l-523.495,0.186
				c-1.404-0.115-9.4-0.458-21.626,4.364c-9.559,3.764-18.571,13.988-18.571,13.988l-113.748,131.884l0.052,0.027
				c-1.85,2.021-3.031,4.691-3.031,7.655c0,5.954,4.611,10.772,10.441,11.234v0.046h0.481c0.13,0,0.27,0.043,0.399,0.043
				c0.142,0,0.27-0.043,0.412-0.043l726.335-0.022c0,0,13.372-0.588,21.95-4.253c6.887-2.954,15.406-11.147,15.406-11.147
				l97.073-108.793c0,0,12.514-17.097,38.326-16.79c25.803-0.308,38.325,16.79,38.325,16.79l97.066,108.793
				c0,0,8.521,8.193,15.393,11.147c8.579,3.665,21.95,4.253,21.95,4.253l726.349,0.022c0.136,0,0.259,0.043,0.412,0.043
				c0.134,0,0.268-0.043,0.394-0.043h0.475v-0.046C1930.211,1126.207,1934.805,1121.389,1934.805,1115.435z"/>
		</g>
		<g>
			<path fill="#FFFFFF" d="M274.275,1246.893h8.659c11.475,0,17.208,17.319,17.208,51.956v4.272
				c0,60.135-11.508,96.196-34.529,108.188h-17.319l-38.913-43.295c-6.897,0-17.021,17.319-30.364,51.954l-12.932,4.277
				c-20.469-6.221-37.789-29.275-51.962-69.164l-4.272-73.554v-17.316l8.662-8.658h8.66c10.269,0,23.244,25.939,38.913,77.826h4.271
				l13.049-64.899l4.271-4.269h21.704c8.925,4.043,21.891,31.447,38.913,82.21h8.659l4.279-30.364v-43.184
				C263.028,1255.554,267.377,1246.893,274.275,1246.893z"/>
			<path fill="#FFFFFF" d="M445.56,1228.668c11.244,4.807,17.391,9.718,18.44,14.736v11.133c0,8.396-31.978,19.452-95.932,33.178
				l-11.135,14.736v3.706l11.135,3.716c34.413-9.82,60.239-14.731,77.492-14.731l14.729,11.016c0,21.816-30.739,35.354-92.22,40.604
				l-7.421,11.018v14.847h18.443l70.176-22.155h3.602c4.871,0,9.824,7.385,14.847,22.155c0,14.019-36.927,31.228-110.781,51.62
				h-11.021l-40.598-44.312v-7.309c0-8.249,3.671-16.874,11.021-25.864l-3.602-70.068c0-17.245,19.683-25.863,59.049-25.863
				C401.395,1236.06,425.988,1228.668,445.56,1228.668z"/>
			<path fill="#FFFFFF" d="M586.703,1244.866c7.949,1.651,11.919,12.297,11.919,31.938l-11.919,107.632l55.786-15.97h15.97
				l11.921,11.914c-23.771,29.248-59.647,43.865-107.631,43.865l-7.985-11.921v-27.889l15.97-83.784v-27.896
				C570.733,1258.515,576.055,1249.215,586.703,1244.866z"/>
			<path fill="#FFFFFF" d="M795.67,1247.452c37.261,0,57.426,23.284,60.505,69.841c-15.147,71.303-55.487,106.953-121.015,106.953
				h-4.612c-34.113,0-51.168-21.702-51.168-65.117c0-39.286,29.465-74.976,88.394-107.066L795.67,1247.452z M711.994,1382.415
				l18.555,4.606c58.935-11.545,88.402-33.255,88.402-65.118c-9.072-21.745-23.021-32.614-41.839-32.614h-4.725
				c-28.642,14.772-48.771,42.703-60.393,83.783V1382.415z"/>
			<path fill="#FFFFFF" d="M984.158,1224.732l8.326,16.649c0,37.708-26.315,94.505-78.953,170.386l-16.644,12.479h-4.16
				c-13.873,0-22.191-30.48-24.964-91.433v-33.288c0-28.038,8.319-43.261,24.964-45.663c11.093,2.772,16.645,8.326,16.645,16.649
				l-4.16,70.621l4.16,4.16h4.159l45.663-103.911L984.158,1224.732z"/>
			<path fill="#FFFFFF" d="M1132.611,1228.668c11.244,4.807,17.392,9.718,18.442,14.736v11.133c0,8.396-31.979,19.452-95.933,33.178
				l-11.133,14.736v3.706l11.133,3.716c34.412-9.82,60.24-14.731,77.49-14.731l14.73,11.016c0,21.816-30.739,35.354-92.221,40.604
				l-7.421,11.018v14.847h18.443l70.176-22.155h3.601c4.871,0,9.824,7.385,14.846,22.155c0,14.019-36.924,31.228-110.777,51.62
				h-11.024l-40.598-44.312v-7.309c0-8.249,3.672-16.874,11.022-25.864l-3.601-70.068c0-17.245,19.682-25.863,59.048-25.863
				C1088.447,1236.06,1113.041,1228.668,1132.611,1228.668z"/>
			<path fill="#FFFFFF" d="M1317.955,1243.85c14.849,0,28.19,22.726,40.036,68.152c12.218,16.054,21.597,24.074,28.117,24.074
				v20.018l15.972,48.136l-7.985,7.984h-20.019c-15.223-24.065-31.268-36.098-48.137-36.098h-12.032
				c-13.87,0-31.229,16.04-52.073,48.13h-12.032l-7.985-7.983v-48.138c11.398-10.423,32.766-50.494,64.107-120.223L1317.955,1243.85
				z M1309.972,1319.994l-4.048,4.043v20.023h12.031l7.984-7.984v-12.039L1309.972,1319.994z"/>
			<path fill="#FFFFFF" d="M1545.592,1228.668c11.244,4.807,17.39,9.718,18.442,14.736v11.133c0,8.396-31.981,19.452-95.934,33.178
				l-11.134,14.736v3.706l11.134,3.716c34.413-9.82,60.24-14.731,77.491-14.731l14.729,11.016c0,21.816-30.74,35.354-92.22,40.604
				l-7.42,11.018v14.847h18.442l70.175-22.155h3.603c4.87,0,9.822,7.385,14.846,22.155c0,14.019-36.927,31.228-110.779,51.62
				h-11.022l-40.598-44.312v-7.309c0-8.249,3.671-16.874,11.022-25.864l-3.603-70.068c0-17.245,19.681-25.863,59.046-25.863
				C1501.428,1236.06,1526.02,1228.668,1545.592,1228.668z"/>
			<path fill="#FFFFFF" d="M1704.725,1246.893c32.692,0,49.037,11.317,49.037,33.961v11.362
				c-8.172,13.194-30.818,29.542-67.932,49.035v3.708c7.126,7.572,24.746,12.639,52.861,15.182l7.532,15.07
				c-5.171,15.07-15.218,22.608-30.141,22.608l-86.82-15.076c-15.072,0-26.393,13.836-33.966,41.503h-18.895
				c-5.022,0-7.532-3.784-7.532-11.361l30.141-116.957c0-30.14,16.38-45.216,49.146-45.216L1704.725,1246.893z M1629.263,1314.818
				l3.713,11.356l60.393-26.428l-11.246-11.357h-18.895C1647.936,1288.39,1636.612,1297.198,1629.263,1314.818z"/>
			<path fill="#FFFFFF" d="M1873.541,1247.452c37.263,0,57.426,23.284,60.503,69.841c-15.145,71.303-55.484,106.953-121.013,106.953
				h-4.613c-34.109,0-51.166-21.702-51.166-65.117c0-39.286,29.465-74.976,88.396-107.066L1873.541,1247.452z M1789.865,1382.415
				l18.553,4.606c58.937-11.545,88.403-33.255,88.403-65.118c-9.072-21.745-23.019-32.614-41.839-32.614h-4.724
				c-28.644,14.772-48.773,42.703-60.394,83.783V1382.415z"/>
		</g>
	</g>
</g>
</svg>
